#!OML:ASF E:\motion texture\Top Level 1\Subject 1\Session 1\male.ASF
:FULLY-SPECIFIED
:DEGREES
159
root 8.31066 17.8903 5.11998 92.6865 -85.7177 -85.9875
lowerback -2.24167 -2.7288 2.85607
upperback -0.159365 -3.96976 6.33603
thorax 1.35692 -2.06646 4.80633
lowerneck -17.1602 -4.99434 -6.86616
upperneck 18.3649 -7.10157 8.45089
head 9.15832 -2.97857 3.08981
rclavicle 1.98785e-015 -3.49861e-014
rhumerus -49.8917 -41.7231 -49.4155
rradius 14.8764
rwrist 28.9196
rhand -14.9534 -35.6104
rfingers 7.12502
rthumb 11.2097 -65.291
lclavicle 1.98785e-015 -3.49861e-014
lhumerus -20.6461 17.3393 77.3486
lradius 20.7781
lwrist -33.3825
lhand -6.91041 21.9304
lfingers 7.12502
lthumb 18.957 51.0266
rfemur -23.9159 3.91871 25.2378
rtibia 20.8301
rfoot -0.636618 -5.00589
rtoes 21.6378
lfemur -6.50552 -2.17879 -12.9326
ltibia 46.9307
lfoot 14.3496 -6.1071
ltoes -10.7447
160
root 8.15913 17.9007 5.09658 92.3059 -85.2648 -85.7365
lowerback -2.10659 -2.67542 3.33768
upperback -0.1213 -3.91664 6.47589
thorax 1.2958 -2.04233 4.69121
lowerneck -17.3062 -5.001 -6.81907
upperneck 18.4859 -7.08027 8.26687
head 9.21538 -2.97848 3.0201
rclavicle -7.55382e-015 6.52014e-014
rhumerus -49.175 -40.1194 -50.8706
rradius 15.0594
rwrist 27.9307
rhand -14.9724 -34.8482
rfingers 7.12502
rthumb 11.1913 -64.5297
lclavicle -7.55382e-015 6.52014e-014
lhumerus -21.47 17.3789 77.3569
lradius 19.743
lwrist -37.7446
lhand -6.03808 20.9594
lfingers 7.12502
lthumb 19.7958 49.9713
rfemur -23.0701 4.00421 25.9262
rtibia 20.6186
rfoot -1.08995 -4.94621
rtoes 21.819
lfemur -7.6038 -1.78873 -12.1597
ltibia 48.817
lfoot 16.814 -6.0354
ltoes -7.65419
161
root 8.00915 17.9104 5.07368 92.3597 -84.8561 -85.9555
lowerback -1.93547 -2.61858 3.76467
upperback -0.0750182 -3.85229 6.59093
thorax 1.22475 -2.01243 4.58288
lowerneck -17.4256 -5.00084 -6.76273
upperneck 18.6074 -7.05908 8.10334
head 9.26846 -2.97692 2.95621
rclavicle -7.95139e-015 8.90555e-014
rhumerus -48.5055 -38.6001 -52.2218
rradius 15.2212
rwrist 26.9643
rhand -14.8871 -33.9827
rfingers 7.12502
rthumb 11.2737 -63.6598
lclavicle -7.95139e-015 8.90555e-014
lhumerus -22.3471 17.5775 77.3309
lradius 18.8463
lwrist -41.9323
lhand -5.12723 19.9139
lfingers 7.12502
lthumb 20.6712 48.8331
rfemur -22.1874 4.12922 26.5664
rtibia 20.398
rfoot -1.52952 -4.89662
rtoes 21.9385
lfemur -8.66235 -1.36138 -11.4545
ltibia 50.6456
lfoot 18.9092 -5.92836
ltoes -5.00892
162
root 7.86029 17.9199 5.0509 92.6128 -84.4947 -86.3912
lowerback -1.75404 -2.56519 4.13144
upperback -0.0139662 -3.78847 6.68511
thorax 1.16626 -1.98261 4.48649
lowerneck -17.5549 -4.99546 -6.70146
upperneck 18.7284 -7.03563 7.95824
head 9.32373 -2.97201 2.898
rclavicle -2.88238e-014 6.52014e-014
rhumerus -47.8528 -37.2055 -53.4635
rradius 15.3587
rwrist 26.0829
rhand -14.6861 -33.0584
rfingers 7.12502
rthumb 11.4675 -62.7248
lclavicle -2.88238e-014 6.52014e-014
lhumerus -23.2581 17.9327 77.2723
lradius 18.0826
lwrist -45.8248
lhand -4.25001 18.8857
lfingers 7.12502
lthumb 21.5139 47.7109
rfemur -21.2812 4.28964 27.1558
rtibia 20.1635
rfoot -1.9507 -4.87084
rtoes 21.9845
lfemur -9.70078 -0.90063 -10.8179
ltibia 52.4215
lfoot 20.4338 -5.83735
ltoes -3.14317
163
root 7.7122 17.9297 5.02809 92.9745 -84.1837 -86.9272
lowerback -1.59452 -2.51486 4.43727
upperback 0.0511426 -3.7266 6.7556
thorax 1.12712 -1.95326 4.39791
lowerneck -17.6691 -4.98366 -6.63482
upperneck 18.8366 -7.00984 7.83477
head 9.37245 -2.96411 2.84681
rclavicle 2.10712e-014 6.36111e-015
rhumerus -47.2226 -35.9494 -54.586
rradius 15.4789
rwrist 25.3174
rhand -14.3621 -32.1141
rfingers 7.12502
rthumb 11.78 -61.7628
lclavicle 2.10712e-014 6.36111e-015
lhumerus -24.2124 18.4415 77.1644
lradius 17.433
lwrist -49.388
lhand -3.47309 17.9221
lfingers 7.12502
lthumb 22.2599 46.6601
rfemur -20.3811 4.46514 27.6908
rtibia 19.9205
rfoot -2.37048 -4.87239
rtoes 22.033
lfemur -10.7459 -0.407522 -10.2535
ltibia 54.1449
lfoot 21.2769 -5.78704
ltoes -2.07564
164
root 7.56474 17.9399 5.00548 93.377 -83.9289 -87.4819
lowerback -1.47715 -2.47198 4.67999
upperback 0.124914 -3.67545 6.8051
thorax 1.12398 -1.9286 4.31977
lowerneck -17.7973 -4.96536 -6.5694
upperneck 18.936 -6.97655 7.72734
head 9.42092 -2.95085 2.80217
rclavicle -9.34288e-015 -1.59028e-014
rhumerus -46.568 -34.8168 -55.6294
rradius 15.5931
rwrist 24.6551
rhand -13.9295 -31.2312
rfingers 7.12502
rthumb 12.1971 -60.8555
lclavicle -9.34288e-015 -1.59028e-014
lhumerus -25.1871 19.1622 76.9919
lradius 16.8609
lwrist -52.6025
lhand -2.77929 17.1256
lfingers 7.12502
lthumb 22.9258 45.7826
rfemur -19.5027 4.62887 28.1629
rtibia 19.6683
rfoot -2.78306 -4.88739
rtoes 22.0858
lfemur -11.8126 0.108657 -9.77297
ltibia 55.8158
lfoot 21.3997 -5.76834
ltoes -1.66938
165
root 7.41809 17.9508 4.98324 93.7624 -83.7296 -87.9924
lowerback -1.4004 -2.4365 4.86139
upperback 0.197131 -3.63457 6.83502
thorax 1.14516 -1.9084 4.25298
lowerneck -17.9162 -4.93996 -6.50522
upperneck 19.0235 -6.93485 7.62965
head 9.46343 -2.93317 2.76239
rclavicle -1.43125e-014 -2.38542e-014
rhumerus -45.894 -33.7876 -56.5978
rradius 15.7088
rwrist 24.0774
rhand -13.4361 -30.3928
rfingers 7.12502
rthumb 12.6728 -59.9883
lclavicle -1.43125e-014 -2.38542e-014
lhumerus -26.1894 20.1319 76.7283
lradius 16.3358
lwrist -55.4865
lhand -2.23135 16.4993
lfingers 7.12502
lthumb 23.4515 45.0901
rfemur -18.653 4.75732 28.5684
rtibia 19.4054
rfoot -3.19268 -4.90649
rtoes 22.1964
lfemur -12.9107 0.63645 -9.37811
ltibia 57.4393
lfoot 20.8757 -5.74644
ltoes -1.72821
166
root 7.2726 17.9621 4.96168 94.1737 -83.5799 -88.5018
lowerback -1.35914 -2.40545 4.98561
upperback 0.259351 -3.59945 6.85008
thorax 1.17874 -1.89063 4.2008
lowerneck -18.0026 -4.90608 -6.44159
upperneck 19.1009 -6.88218 7.53056
head 9.49569 -2.91168 2.72419
rclavicle 1.98785e-015 -3.81667e-014
rhumerus -45.2039 -32.8143 -57.515
rradius 15.8426
rwrist 23.5324
rhand -12.9011 -29.6327
rfingers 7.12502
rthumb 13.1886 -59.1955
lclavicle 1.98785e-015 -3.81667e-014
lhumerus -27.2582 21.3002 76.3675
lradius 15.8702
lwrist -57.9655
lhand -1.76551 16.067
lfingers 7.12502
lthumb 23.8983 44.6
rfemur -17.8335 4.83709 28.9108
rtibia 19.1298
rfoot -3.58675 -4.90561
rtoes 22.3391
lfemur -14.0386 1.17187 -9.06462
ltibia 59.0033
lfoot 19.8473 -5.69403
ltoes -2.1108
167
root 7.12827 17.9738 4.94089 94.6448 -83.4713 -89.0513
lowerback -1.34445 -2.37594 5.06061
upperback 0.312571 -3.56601 6.85348
thorax 1.22023 -1.87338 4.16269
lowerneck -18.054 -4.86536 -6.38046
upperneck 19.1694 -6.82001 7.42793
head 9.51773 -2.88748 2.68699
rclavicle -8.94531e-015 -2.70347e-014
rhumerus -44.4968 -31.8914 -58.3852
rradius 15.9964
rwrist 23.0022
rhand -12.3568 -28.9653
rfingers 7.12502
rthumb 13.7132 -58.4934
lclavicle -8.94531e-015 -2.70347e-014
lhumerus -28.3861 22.7063 75.8844
lradius 15.4316
lwrist -60.0937
lhand -1.38299 15.838
lfingers 7.12502
lthumb 24.2651 44.3225
rfemur -17.0395 4.87522 29.1974
rtibia 18.8447
rfoot -3.95636 -4.87601
rtoes 22.4682
lfemur -15.1844 1.71631 -8.82081
ltibia 60.4877
lfoot 18.4927 -5.60829
ltoes -2.73497
